<?xml version="1.0" encoding="UTF-8" ?>
<!DOCTYPE svg PUBLIC "-//W3C//DTD SVG 1.1//EN" "http://www.w3.org/Graphics/SVG/1.1/DTD/svg11.dtd">
<svg width="250pt" height="188pt" viewBox="0 0 250 188" version="1.1" xmlns="http://www.w3.org/2000/svg">
<g id="#ffffffff">
</g>
<g id="#231f20ff">
<path fill="#231f20" opacity="1.00" d=" M 116.51 0.00 L 117.82 0.00 C 102.53 16.54 91.09 36.90 86.00 58.91 C 93.91 60.53 101.83 62.10 109.75 63.66 C 114.72 44.79 119.69 25.91 124.71 7.05 C 129.93 25.92 134.86 44.88 140.13 63.73 C 148.07 62.06 156.05 60.56 164.00 58.90 C 158.86 36.91 147.50 16.50 132.14 0.00 L 135.02 0.00 L 133.70 0.01 C 147.99 3.32 162.05 8.02 174.93 15.11 C 186.42 21.72 195.45 32.08 201.65 43.70 C 217.74 40.35 234.37 43.60 250.00 47.74 L 250.00 48.13 C 231.39 60.50 217.05 78.15 204.19 96.18 C 187.68 120.60 171.77 145.42 155.94 170.30 C 157.97 145.39 160.86 120.56 164.11 95.79 C 158.40 100.19 152.46 104.30 146.89 108.85 C 139.20 135.12 132.35 161.67 124.81 188.00 L 124.51 188.00 C 117.73 162.39 110.69 136.85 103.88 111.25 C 103.50 110.07 103.33 108.66 102.17 107.95 C 96.78 103.86 91.34 99.82 85.91 95.76 C 89.05 120.56 92.06 145.38 94.05 170.29 C 80.36 148.65 66.43 127.14 52.28 105.79 C 43.84 92.84 34.62 80.34 24.08 69.01 C 16.80 61.26 9.00 53.87 0.00 48.13 L 0.00 46.97 L 0.01 47.76 C 15.63 43.57 32.28 40.37 48.36 43.70 C 54.64 31.85 63.93 21.32 75.72 14.74 C 88.50 7.85 102.37 3.18 116.51 0.00 Z" />
</g>
</svg>
