<?xml version="1.0" encoding="utf-8"?>
<!-- Generator: Adobe Illustrator 13.0.2, SVG Export Plug-In . SVG Version: 6.00 Build 14948)  -->
<!DOCTYPE svg PUBLIC "-//W3C//DTD SVG 1.1//EN" "http://www.w3.org/Graphics/SVG/1.1/DTD/svg11.dtd">
<svg version="1.1" id="Mirrodin_Besieged" xmlns="http://www.w3.org/2000/svg" xmlns:xlink="http://www.w3.org/1999/xlink" x="0px"
	 y="0px" width="224.172px" height="273.001px" viewBox="0 0 224.172 273.001" enable-background="new 0 0 224.172 273.001"
	 xml:space="preserve">
<g>
	<path d="M101.305,113.151C102.642,62.965,106.235,25.248,112.086,0c5.851,25.248,9.444,62.965,10.781,113.151
		c22.397,5.042,38.312,24.935,38.312,47.895c0,22.959-15.914,42.852-38.312,47.894c-0.645,24.165-1.811,45.44-3.501,63.823
		c-4.863,0.317-9.697,0.317-14.561,0c-1.69-18.383-2.856-39.658-3.501-63.823c-22.397-5.042-38.312-24.935-38.312-47.894
		C62.993,138.086,78.907,118.193,101.305,113.151z M123.462,161.046c0,11.692-0.094,22.871-0.281,33.533
		c32.303-10.688,32.303-56.38,0-67.067C123.368,138.176,123.462,149.354,123.462,161.046z M100.991,194.579
		c-0.188-10.662-0.281-21.841-0.281-33.533s0.094-22.87,0.281-33.534C68.688,138.199,68.688,183.892,100.991,194.579z"/>
	<path d="M83.942,113.005c-6.605,3.869-11.889,8.595-16.469,14.729c-10.544-16.224-21.088-32.445-31.632-48.667
		c9-8.37,18.724-14.852,29.912-19.938C71.816,77.089,77.879,95.046,83.942,113.005z"/>
	<path d="M158.419,59.13c11.188,5.086,20.912,11.567,29.912,19.938c-10.544,16.222-21.088,32.443-31.632,48.667
		c-4.581-6.135-9.864-10.86-16.469-14.729C146.293,95.046,152.356,77.089,158.419,59.13z"/>
	<path d="M62.224,136.27c-15.125,30.438,0.315,67.206,32.635,77.722c0.053,1.76,0.108,3.519,0.17,5.278
		c0.193,5.742,0.426,11.481,0.703,17.219c0.423,8.765,0.949,17.524,1.623,26.272c0.24,3.124,0.498,6.246,0.779,9.366
		C11.294,261.221-30.01,159.363,24.709,91.053C37.215,106.125,49.719,121.198,62.224,136.27z"/>
	<path d="M129.313,213.991c32.32-10.516,47.76-47.283,32.635-77.722c12.505-15.071,25.009-30.145,37.515-45.217
		c54.719,68.311,13.415,170.168-73.425,181.074c0.281-3.12,0.539-6.242,0.779-9.366c0.674-8.748,1.2-17.508,1.623-26.272
		c0.277-5.737,0.51-11.477,0.703-17.219C129.204,217.51,129.26,215.751,129.313,213.991z"/>
</g>
</svg>
