<?xml version="1.0" encoding="utf-8"?>
<!-- Generator: Adobe Illustrator 13.0.2, SVG Export Plug-In . SVG Version: 6.00 Build 14948)  -->
<!DOCTYPE svg PUBLIC "-//W3C//DTD SVG 1.1 Basic//EN" "http://www.w3.org/Graphics/SVG/1.1/DTD/svg11-basic.dtd">
<svg version="1.1" baseProfile="basic" xmlns="http://www.w3.org/2000/svg" xmlns:xlink="http://www.w3.org/1999/xlink" x="0px"
	 y="0px" width="2622.047px" height="2962.205px" viewBox="0 0 2622.047 2962.205" xml:space="preserve">
<g id="Zendikar" display="none">
	<polygon display="inline" points="1311.023,1757.48 226.771,1268.504 1311.023,2820.472 2395.275,1268.504 	"/>
	<polygon display="inline" points="1311.023,1502.362 226.771,1041.732 1311.023,106.299 2395.275,1041.732 	"/>
</g>
<g id="Worldwake">
	<path d="M1311.023,2664.567l-233.858-1084.252l-680.315-375.59l680.315-63.78l233.858-970.866l233.858,970.866l680.315,63.78
		l-680.315,375.59L1311.023,2664.567z M1311.023,0L148.819,1169.291l1162.205,1743.307l1162.205-1743.307L1311.023,0z"/>
</g>
<g id="Rise_of_the_Eldzari" display="none">
	<polygon display="inline" points="722.834,1431.496 0,1743.307 977.953,1686.614 	"/>
	<polygon display="inline" points="715.748,2182.677 1140.945,1757.48 715.748,1332.283 1233.071,552.756 1233.071,1757.48 
		1233.071,2962.205 	"/>
	<polygon display="inline" points="722.834,2083.465 0,1771.654 977.953,1828.346 	"/>
	<polygon display="inline" points="1899.212,1431.496 2622.047,1743.307 1644.094,1686.614 	"/>
	<polygon display="inline" points="1899.212,2083.465 2622.047,1771.654 1644.094,1828.346 	"/>
	<polygon display="inline" points="1906.299,2182.677 1481.102,1757.48 1906.299,1332.283 1388.976,552.756 1388.976,1757.48 
		1388.976,2962.205 	"/>
</g>
</svg>
